<svg xmlns="http://www.w3.org/2000/svg" width="900" height="360" viewBox="0 0 900 360" role="img"><rect width="900" height="360" fill="white"/>
<text x="24.0" y="34.0" font-family="Inter, Arial, sans-serif" font-size="20" font-weight="700" fill="#172033" text-anchor="start">The dataset is dominated by the platform-startup boom</text>
<text x="24.0" y="56.0" font-family="Inter, Arial, sans-serif" font-size="13" font-weight="400" fill="#5d6472" text-anchor="start">Company formation accelerates after 2000, then drops near the dataset boundary.</text>
<polyline points="80.0,288.3 102.4,288.5 124.7,288.6 147.1,287.6 169.4,287.1 191.8,287.0 214.1,287.3 236.5,287.2 258.8,287.1 281.2,286.2 303.5,286.4 325.9,286.1 348.2,285.2 370.6,284.7 392.9,283.3 415.3,280.7 437.6,277.0 460.0,274.6 482.4,271.4 504.7,257.7 527.1,251.6 549.4,258.3 571.8,256.2 594.1,249.0 616.5,240.5 638.8,229.2 661.2,212.7 683.5,189.9 705.9,189.3 728.2,163.1 750.6,128.6 772.9,81.5 795.3,70.0 817.6,117.2 840.0,226.2" fill="none" stroke="#3457d5" stroke-width="4" stroke-linejoin="round"/>
<line x1="80.0" y1="70" x2="80.0" y2="290" stroke="#d9dee8" stroke-width="1"/>
<text x="80.0" y="315.0" font-family="Inter, Arial, sans-serif" font-size="11" font-weight="400" fill="#5d6472" text-anchor="middle">1980</text>
<line x1="303.5" y1="70" x2="303.5" y2="290" stroke="#d9dee8" stroke-width="1"/>
<text x="303.5" y="315.0" font-family="Inter, Arial, sans-serif" font-size="11" font-weight="400" fill="#5d6472" text-anchor="middle">1990</text>
<line x1="527.1" y1="70" x2="527.1" y2="290" stroke="#d9dee8" stroke-width="1"/>
<text x="527.1" y="315.0" font-family="Inter, Arial, sans-serif" font-size="11" font-weight="400" fill="#5d6472" text-anchor="middle">2000</text>
<line x1="750.6" y1="70" x2="750.6" y2="290" stroke="#d9dee8" stroke-width="1"/>
<text x="750.6" y="315.0" font-family="Inter, Arial, sans-serif" font-size="11" font-weight="400" fill="#5d6472" text-anchor="middle">2010</text>
<line x1="840.0" y1="70" x2="840.0" y2="290" stroke="#d9dee8" stroke-width="1"/>
<text x="840.0" y="315.0" font-family="Inter, Arial, sans-serif" font-size="11" font-weight="400" fill="#5d6472" text-anchor="middle">2014</text>
<line x1="80" y1="290.0" x2="840" y2="290.0" stroke="#d9dee8" stroke-width="1"/>
<text x="70.0" y="294.0" font-family="Inter, Arial, sans-serif" font-size="11" font-weight="400" fill="#5d6472" text-anchor="end">0</text>
<line x1="80" y1="224.5" x2="840" y2="224.5" stroke="#d9dee8" stroke-width="1"/>
<text x="70.0" y="228.5" font-family="Inter, Arial, sans-serif" font-size="11" font-weight="400" fill="#5d6472" text-anchor="end">1,500</text>
<line x1="80" y1="159.0" x2="840" y2="159.0" stroke="#d9dee8" stroke-width="1"/>
<text x="70.0" y="163.0" font-family="Inter, Arial, sans-serif" font-size="11" font-weight="400" fill="#5d6472" text-anchor="end">3,000</text>
<line x1="80" y1="93.5" x2="840" y2="93.5" stroke="#d9dee8" stroke-width="1"/>
<text x="70.0" y="97.5" font-family="Inter, Arial, sans-serif" font-size="11" font-weight="400" fill="#5d6472" text-anchor="end">4,500</text>
<line x1="80" y1="28.0" x2="840" y2="28.0" stroke="#d9dee8" stroke-width="1"/>
<text x="70.0" y="32.0" font-family="Inter, Arial, sans-serif" font-size="11" font-weight="400" fill="#5d6472" text-anchor="end">6,000</text></svg>